<?xml version="1.0" encoding="utf-8"?>
<!-- Svg Vector Icons : http://www.onlinewebfonts.com/icon -->
<!DOCTYPE svg PUBLIC "-//W3C//DTD SVG 1.1//EN" "http://www.w3.org/Graphics/SVG/1.1/DTD/svg11.dtd">
<svg version="1.1" xmlns="http://www.w3.org/2000/svg" xmlns:xlink="http://www.w3.org/1999/xlink" x="0px" y="0px" viewBox="0 0 1000 1000" enable-background="new 0 0 1000 1000" xml:space="preserve">
<metadata> Svg Vector Icons : http://www.onlinewebfonts.com/icon </metadata>
<g><path d="M214.2,10h571.7c33.8,0,62.7,12,86.6,35.9c23.9,23.9,35.9,52.8,35.9,86.6v735c0,33.8-12,62.7-35.9,86.6C848.5,978,819.6,990,785.8,990H214.2c-33.8,0-62.7-12-86.6-35.9c-23.9-23.9-35.9-52.8-35.9-86.6v-735c0-33.8,12-62.7,35.9-86.6C151.5,22,180.4,10,214.2,10z M336.7,704.2h326.7c11.3,0,20.9,4,28.9,12c8,8,12,17.6,12,28.9c0,11.3-4,20.9-12,28.9c-8,8-17.6,12-28.9,12H336.7c-11.3,0-20.9-4-28.9-12c-8-8-12-17.6-12-28.9c0-11.3,4-20.9,12-28.9C315.8,708.2,325.4,704.2,336.7,704.2z M336.7,540.8h326.7c11.3,0,20.9,4,28.9,12c8,8,12,17.6,12,28.9s-4,20.9-12,28.9c-8,8-17.6,12-28.9,12H336.7c-11.3,0-20.9-4-28.9-12c-8-8-12-17.6-12-28.9s4-20.9,12-28.9C315.8,544.8,325.4,540.8,336.7,540.8z M785.8,91.7H214.2c-11.3,0-20.9,4-28.9,12c-8,8-12,17.6-12,28.9v735c0,11.3,4,20.9,12,28.9c8,8,17.6,12,28.9,12h571.7c11.3,0,20.9-4,28.9-12c8-8,12-17.6,12-28.9v-735c0-11.3-4-20.9-12-28.9C806.7,95.7,797.1,91.7,785.8,91.7z M336.7,377.5h326.7c11.3,0,20.9,4,28.9,12c8,8,12,17.6,12,28.9c0,11.3-4,20.9-12,28.9s-17.6,12-28.9,12H336.7c-11.3,0-20.9-4-28.9-12c-8-8-12-17.6-12-28.9c0-11.3,4-20.9,12-28.9C315.8,381.5,325.4,377.5,336.7,377.5z M336.7,214.2H500c11.3,0,20.9,4,28.9,12c8,8,12,17.6,12,28.9c0,11.3-4,20.9-12,28.9c-8,8-17.6,12-28.9,12H336.7c-11.3,0-20.9-4-28.9-12c-8-8-12-17.6-12-28.9c0-11.3,4-20.9,12-28.9C315.8,218.2,325.4,214.2,336.7,214.2L336.7,214.2z"/></g>
</svg>