<?xml version="1.0" standalone="no"?>
<!DOCTYPE svg PUBLIC "-//W3C//DTD SVG 20010904//EN"
 "http://www.w3.org/TR/2001/REC-SVG-20010904/DTD/svg10.dtd">
<svg version="1.0" xmlns="http://www.w3.org/2000/svg"
 width="24px" height="24px" viewBox="0 0 1280.000000 1152.000000"
 preserveAspectRatio="xMidYMid meet">
<g transform="translate(0.000000,1152.000000) scale(0.100000,-0.100000)"
fill="#000000" stroke="none">
<path d="M6575 11478 c-78 -63 -1012 -788 -2085 -1618 -2796 -2161 -4103
-3181 -4447 -3468 l-42 -35 30 -41 c64 -90 88 -217 89 -481 0 -55 7 -131 15
-169 14 -67 57 -156 75 -156 12 0 313 238 685 540 163 132 297 240 299 240 2
0 6 -1189 9 -2642 6 -2713 14 -3417 43 -3556 8 -43 19 -81 24 -85 4 -5 738 -4
1631 2 3847 27 4653 31 6632 38 l2087 6 0 3184 c0 1750 3 3183 6 3183 4 0 36
-26 73 -58 88 -78 757 -644 893 -755 93 -76 109 -86 126 -76 30 19 60 71 73
127 13 55 13 61 -26 362 -15 114 -14 146 7 268 9 56 8 65 -8 84 -69 77 -820
717 -1758 1498 l-618 515 6 495 c4 272 11 668 16 880 5 212 12 632 16 933 l7
548 -24 -5 c-72 -17 -334 -26 -758 -26 -393 0 -634 -9 -647 -23 -1 -1 9 -69
22 -152 48 -309 58 -420 58 -670 -1 -155 -7 -296 -18 -400 -17 -153 -54 -427
-59 -431 -2 -1 -435 357 -1387 1149 -594 495 -798 667 -906 764 -45 40 -84 73
-85 73 -2 -1 -26 -19 -54 -42z"/>
</g>
</svg>
